<svg xmlns="http://www.w3.org/2000/svg">
  <symbol id="icon_dropdown" width="10" height="6" viewBox="0 0 10 6">
    <path d="M10 0H9L5 4 1 0a1 1 0 10-1 1l4 5h2l4-5V0z" fill="currentColor"/>
  </symbol>
  <symbol id="icon_cross" width="17" height="17" viewBox="0 0 17 17">
    <path fill="currentColor" d="M0 16L16 0l1 1L1 17z"/>
    <path fill="currentColor" d="M16 17L0 1l1-1 16 16z"/>
  </symbol>
  <symbol id="icon_info" width="17" height="17" viewBox="0 0 17 17">
    <path
      d="M11.6049 4.86102C11.7381 5.17399 11.8113 5.52692 11.8113 5.92645C11.8113 6.10625 11.798 6.27272 11.7714 6.42587C11.7447 6.57903 11.7048 6.73219 11.6515 6.87202C11.5982 7.01186 11.5317 7.14504 11.4584 7.27822C11.3852 7.4114 11.2853 7.53792 11.1855 7.66444C11.0789 7.79096 10.9391 7.93079 10.7593 8.09727C10.5796 8.26374 10.3599 8.44353 10.1002 8.6433C9.88048 8.81643 9.70072 8.96959 9.55424 9.11608C9.40776 9.26258 9.29458 9.3891 9.22134 9.5023C9.1481 9.61551 9.08818 9.74868 9.05489 9.90184C9.0216 10.055 9.00163 10.2281 9.00163 10.4146V10.5744V10.7342H8.30919H7.61676V10.5078V10.2814C7.61676 10.0217 7.64339 9.78198 7.69 9.56889C7.7366 9.35581 7.80984 9.15604 7.90305 8.98956C7.99627 8.81643 8.12943 8.6433 8.28922 8.46351C8.44901 8.28372 8.65541 8.10393 8.88844 7.91748C9.16808 7.69773 9.40111 7.49796 9.58087 7.32483C9.76064 7.1517 9.8938 7.0052 9.97369 6.88534C10.0536 6.76548 10.1135 6.62564 10.1535 6.47915C10.1934 6.33265 10.2134 6.17283 10.2134 6.00636C10.2134 5.80659 10.1801 5.63346 10.1135 5.48031C10.0469 5.32715 9.94706 5.20063 9.8139 5.09409C9.68074 4.98754 9.52095 4.90764 9.32787 4.85437C9.13479 4.80109 8.92173 4.77446 8.66873 4.77446C8.44235 4.77446 8.2293 4.78778 8.0229 4.82107C7.8165 4.85437 7.61676 4.90098 7.42368 4.96757C7.2306 5.03416 7.04417 5.10075 6.85775 5.18065C6.67132 5.26056 6.4849 5.34047 6.30513 5.42703L6.00552 4.80775L5.70591 4.18847C6.18529 3.92211 6.67798 3.72235 7.19065 3.58917C7.70331 3.45599 8.23596 3.3894 8.78191 3.3894C9.24131 3.3894 9.66077 3.44267 10.027 3.55587C10.3931 3.66907 10.7127 3.83555 10.9857 4.06195C11.2653 4.27504 11.4717 4.54805 11.6049 4.86102ZM8.3558 11.9062C8.00958 11.9062 7.74992 11.9927 7.57681 12.1725C7.4037 12.3523 7.31715 12.6187 7.31715 12.9716C7.31715 13.1447 7.33712 13.2979 7.38373 13.4311C7.43034 13.5643 7.49692 13.6775 7.58347 13.7773C7.67002 13.8706 7.78321 13.9438 7.90971 13.9904C8.03621 14.037 8.18935 14.0637 8.3558 14.0637C8.52225 14.0637 8.66873 14.037 8.80189 13.9904C8.93505 13.9438 9.04157 13.8706 9.13479 13.7707C9.228 13.6708 9.29458 13.5576 9.34118 13.4244C9.38779 13.2912 9.40776 13.1447 9.40776 12.9716C9.40776 12.8051 9.38779 12.652 9.34118 12.5188C9.29458 12.3856 9.228 12.2724 9.14144 12.1792C9.05489 12.086 8.9417 12.0194 8.8152 11.9728C8.6887 11.9262 8.52891 11.9062 8.3558 11.9062ZM14.4878 2.49044C16.0258 4.02866 16.9779 6.15286 16.9779 8.49014C16.9779 10.8274 16.0258 12.9516 14.4878 14.4898C12.9498 16.0281 10.8259 16.9803 8.48896 16.9803C6.14534 16.9803 4.02809 16.0281 2.49009 14.4898C0.952095 12.9516 0 10.8341 0 8.49014C0 6.1462 0.952095 4.02866 2.49009 2.49044C4.02809 0.952228 6.152 0 8.48896 0C10.8326 0 12.9498 0.952228 14.4878 2.49044ZM13.5024 13.5043C14.7874 12.2191 15.5797 10.4479 15.5797 8.49014C15.5797 6.53242 14.7874 4.76114 13.5024 3.47597C12.2174 2.19079 10.4464 1.39838 8.48896 1.39838C6.5315 1.39838 4.76047 2.19079 3.47548 3.47597C2.19048 4.76114 1.39818 6.53242 1.39818 8.49014C1.39818 10.4479 2.19048 12.2191 3.47548 13.5043C4.76047 14.7895 6.5315 15.5819 8.48896 15.5819C10.4464 15.5819 12.2174 14.7895 13.5024 13.5043Z"
      fill="currentColor"/>
  </symbol>
  <symbol id="icon_favorites" width="25" height="22" viewBox="0 0 25 22">
    <path
      d="M18.0292 0C15.5473 0 13.3932 1.43314 12.3 3.5373C11.2069 1.43314 9.05271 0 6.5708 0C2.98513 0 0.0777588 2.99044 0.0777588 6.67855C0.0777588 7.8092 0.353518 8.87226 0.835537 9.80571C0.85387 9.94712 1.03569 10.2331 1.34655 10.6323C1.54594 10.9104 1.76059 11.176 1.99813 11.418C4.91624 14.7974 12.3 22 12.3 22C12.3 22 19.6838 14.7974 22.6018 11.4188C22.8394 11.176 23.0541 10.9104 23.2534 10.633C23.5643 10.2339 23.7461 9.9479 23.7645 9.80645C24.2465 8.87226 24.5222 7.8092 24.5222 6.67855C24.5222 2.99044 21.6149 0 18.0292 0ZM22.9586 7.27101C22.9517 7.32836 22.9418 7.38493 22.9334 7.44229C22.9127 7.58135 22.8883 7.71886 22.8577 7.85398C22.844 7.91293 22.8295 7.97107 22.8142 8.02998C22.7775 8.16748 22.7347 8.30261 22.6874 8.43621C22.6713 8.48177 22.656 8.52815 22.6385 8.57371C22.5705 8.74893 22.4948 8.92021 22.4093 9.08524C22.3459 9.20623 22.2695 9.31859 22.1977 9.43408C22.2 9.43646 22.2061 9.44509 22.2076 9.44743C22.5307 9.83008 12.7874 19.5501 12.3 19.9218C11.8127 19.5501 2.06922 9.83008 2.39311 9.44665C2.39467 9.44427 2.40074 9.43564 2.40306 9.4333C2.33128 9.31777 2.25487 9.20623 2.19149 9.08442C2.10593 8.91943 2.03028 8.74811 1.9623 8.57293C1.94476 8.52737 1.92947 8.48099 1.91341 8.43543C1.86604 8.30265 1.82326 8.16749 1.78659 8.0292C1.7713 7.97103 1.75604 7.91289 1.74306 7.8532C1.71174 7.71804 1.6873 7.58135 1.66665 7.44229C1.65826 7.38493 1.64832 7.32836 1.64145 7.27101C1.62004 7.07615 1.60554 6.87895 1.60554 6.67859C1.60554 3.85787 3.82846 1.57143 6.5708 1.57143C6.79463 1.57143 7.01307 1.59185 7.22928 1.62171C7.28428 1.62956 7.33852 1.63819 7.39352 1.64764C7.59059 1.68145 7.78387 1.72467 7.9718 1.7812C7.98785 1.78592 8.00463 1.78905 8.02069 1.79377C8.22846 1.85901 8.42861 1.94072 8.62337 2.03185C8.66004 2.04914 8.69595 2.068 8.73261 2.08608C8.90832 2.17408 9.07867 2.27153 9.24211 2.37916L9.24443 2.35714C9.24443 2.35714 9.46291 2.52373 9.77993 2.79164C9.79367 2.80343 9.80897 2.81288 9.82271 2.82463C9.83185 2.83247 9.84028 2.84114 9.84867 2.84899C10.5102 3.41392 11.572 4.40234 12.3 5.5C13.028 4.40234 14.0898 3.41392 14.7513 2.84977C14.7597 2.84192 14.7682 2.8333 14.7773 2.82541C14.791 2.81362 14.8063 2.80421 14.8201 2.79242C15.1371 2.52373 15.3556 2.35714 15.3556 2.35714L15.3579 2.37916C15.5214 2.27153 15.6917 2.17408 15.8674 2.08608C15.9041 2.068 15.94 2.04914 15.9766 2.03185C16.1714 1.94072 16.3716 1.85901 16.5794 1.79377C16.5954 1.78909 16.6122 1.78592 16.6282 1.7812C16.8162 1.72463 17.0102 1.68141 17.2065 1.64764C17.2607 1.63823 17.315 1.62956 17.3708 1.62171C17.5869 1.59185 17.8054 1.57143 18.0292 1.57143C20.7716 1.57143 22.9945 3.85787 22.9945 6.67855C22.9945 6.87891 22.9807 7.07615 22.9586 7.27101Z"
      fill="currentColor"/>
  </symbol>
</svg>
