<svg width="10" height="6" viewBox="0 0 10 6" fill="none" xmlns="http://www.w3.org/2000/svg">
<path d="M9.76244 0.241667C9.60696 0.0856977 9.40129 0 9.18291 0C9.18148 0 9.17997 0 9.17854 0C8.96105 0.00112403 8.75746 0.0873643 8.60492 0.242829L5.08419 3.77465C5.03767 3.82132 4.96194 3.8214 4.91535 3.77465L1.3935 0.241705C1.07462 -0.0780621 0.555907 -0.078062 0.234556 0.244302C-0.0794933 0.566047 -0.0783729 1.08523 0.237106 1.40171L4.419 5.59675C4.57166 5.75314 4.77586 5.83989 4.99405 5.84105C4.99552 5.84105 4.99695 5.84105 4.99842 5.84105C5.2168 5.84105 5.42247 5.75531 5.57795 5.59938L9.76499 1.39907C10.079 1.07733 10.0779 0.558101 9.76244 0.241667Z" fill="#202527"/>
</svg>
